<svg width="300" height="300" viewBox="0 0 300 300" fill="none" xmlns="http://www.w3.org/2000/svg">
<g id="Frame 1" clip-path="url(#clip0)">
<g id="Group 1">
<path id="Line 1" d="M36.2287 141.064L141.178 36.1151" stroke="black" stroke-width="3"/>
<path id="Line 4" d="M159 263.949L263.949 159" stroke="black" stroke-width="3"/>
<line id="Line 2" x1="37.5" y1="141" x2="37.5" y2="264" stroke="black" stroke-width="3"/>
<line id="Line 5" x1="264.5" y1="35.992" x2="265.156" y2="158.99" stroke="black" stroke-width="3"/>
<line id="Line 3" x1="36" y1="262.5" x2="159" y2="262.5" stroke="black" stroke-width="3"/>
<path id="Line 6" d="M141 34.5H264" stroke="black" stroke-width="3"/>
</g>
<g id="Group 2">
<path id="Polygon 1" d="M144.533 38.5322L66.6805 163.947L49.1728 151.21L144.533 38.5322Z" fill="black"/>
<path id="Polygon 2" d="M51.2958 255.072L162.715 232.576L164.96 254.11L51.2958 255.072Z" fill="black"/>
<rect id="Rectangle 1" x="55.7991" y="141" width="143.922" height="20.0707" transform="rotate(42.1551 55.7991 141)" fill="black"/>
</g>
<g id="Group 3">
<path id="Polygon 3" d="M175.612 232.93L150.283 47.8387L174.47 46.1172L175.612 232.93Z" fill="black"/>
<path id="Polygon 4" d="M255.965 161.188L154.999 60.1206L173.546 44.5006L255.965 161.188Z" fill="black"/>
<rect id="Rectangle 2" x="162" y="126.665" width="57.3235" height="16" transform="rotate(-27.721 162 126.665)" fill="black"/>
</g>
</g>
<defs>
<clipPath id="clip0">
<rect width="300" height="300" fill="white"/>
</clipPath>
</defs>
</svg>
