<svg aria-hidden="true" style="width: 0; height: 0; position: absolute; overflow: hidden" version="1.1" xmlns="http://www.w3.org/2000/svg" xmlns:xlink="http://www.w3.org/1999/xlink">
<defs>
<symbol id="icon-github" viewBox="0 0 24 24"><path d="M10.9,2.1c-4.6,0.5-8.3,4.2-8.8,8.7c-0.5,4.7,2.2,8.9,6.3,10.5C8.7,21.4,9,21.2,9,20.8v-1.6c0,0-0.4,0.1-0.9,0.1 c-1.4,0-2-1.2-2.1-1.9c-0.1-0.4-0.3-0.7-0.6-1C5.1,16.3,5,16.3,5,16.2C5,16,5.3,16,5.4,16c0.6,0,1.1,0.7,1.3,1c0.5,0.8,1.1,1,1.4,1 c0.4,0,0.7-0.1,0.9-0.2c0.1-0.7,0.4-1.4,1-1.8c-2.3-0.5-4-1.8-4-4c0-1.1,0.5-2.2,1.2-3C7.1,8.8,7,8.3,7,7.6C7,7.2,7,6.6,7.3,6 c0,0,1.4,0,2.8,1.3C10.6,7.1,11.3,7,12,7s1.4,0.1,2,0.3C15.3,6,16.8,6,16.8,6C17,6.6,17,7.2,17,7.6c0,0.8-0.1,1.2-0.2,1.4 c0.7,0.8,1.2,1.8,1.2,3c0,2.2-1.7,3.5-4,4c0.6,0.5,1,1.4,1,2.3v2.6c0,0.3,0.3,0.6,0.7,0.5c3.7-1.5,6.3-5.1,6.3-9.3 C22,6.1,16.9,1.4,10.9,2.1z"></path>
</symbol>
<symbol id="icon-instagram" viewBox="0 0 24 24">
<path d="M 8 3 C 5.239 3 3 5.239 3 8 L 3 16 C 3 18.761 5.239 21 8 21 L 16 21 C 18.761 21 21 18.761 21 16 L 21 8 C 21 5.239 18.761 3 16 3 L 8 3 z M 18 5 C 18.552 5 19 5.448 19 6 C 19 6.552 18.552 7 18 7 C 17.448 7 17 6.552 17 6 C 17 5.448 17.448 5 18 5 z M 12 7 C 14.761 7 17 9.239 17 12 C 17 14.761 14.761 17 12 17 C 9.239 17 7 14.761 7 12 C 7 9.239 9.239 7 12 7 z M 12 9 A 3 3 0 0 0 9 12 A 3 3 0 0 0 12 15 A 3 3 0 0 0 15 12 A 3 3 0 0 0 12 9 z"></path>
</symbol>
<symbol id="icon-alert-circle" viewBox="0 0 24 24">
<path d="M23 12c0-3.037-1.232-5.789-3.222-7.778s-4.741-3.222-7.778-3.222-5.789 1.232-7.778 3.222-3.222 4.741-3.222 7.778 1.232 5.789 3.222 7.778 4.741 3.222 7.778 3.222 5.789-1.232 7.778-3.222 3.222-4.741 3.222-7.778zM21 12c0 2.486-1.006 4.734-2.636 6.364s-3.878 2.636-6.364 2.636-4.734-1.006-6.364-2.636-2.636-3.878-2.636-6.364 1.006-4.734 2.636-6.364 3.878-2.636 6.364-2.636 4.734 1.006 6.364 2.636 2.636 3.878 2.636 6.364zM11 8v4c0 0.552 0.448 1 1 1s1-0.448 1-1v-4c0-0.552-0.448-1-1-1s-1 0.448-1 1zM12 17c0.552 0 1-0.448 1-1s-0.448-1-1-1-1 0.448-1 1 0.448 1 1 1z"></path>
</symbol>


</defs>
</svg>